<mxfile host="app.diagrams.net" modified="2023-12-20T07:58:17.630Z" agent="Mozilla/5.0 (Windows NT 10.0; Win64; x64; rv:122.0) Gecko/20100101 Firefox/122.0" etag="-TVDwAs3nbm9tjwv_heE" version="22.1.8" type="device">
  <diagram id="C5RBs43oDa-KdzZeNtuy" name="Page-1">
    <mxGraphModel dx="1195" dy="1821" grid="1" gridSize="10" guides="1" tooltips="1" connect="1" arrows="1" fold="1" page="1" pageScale="1" pageWidth="827" pageHeight="1169" math="0" shadow="0">
      <root>
        <mxCell id="WIyWlLk6GJQsqaUBKTNV-0" />
        <mxCell id="WIyWlLk6GJQsqaUBKTNV-1" parent="WIyWlLk6GJQsqaUBKTNV-0" />
        <mxCell id="WIyWlLk6GJQsqaUBKTNV-2" value="" style="rounded=0;html=1;jettySize=auto;orthogonalLoop=1;fontSize=11;endArrow=block;endFill=0;endSize=8;strokeWidth=1;shadow=0;labelBackgroundColor=none;edgeStyle=orthogonalEdgeStyle;" parent="WIyWlLk6GJQsqaUBKTNV-1" source="WIyWlLk6GJQsqaUBKTNV-3" target="WIyWlLk6GJQsqaUBKTNV-6" edge="1">
          <mxGeometry relative="1" as="geometry" />
        </mxCell>
        <mxCell id="WIyWlLk6GJQsqaUBKTNV-3" value="First Message" style="rounded=1;whiteSpace=wrap;html=1;fontSize=12;glass=0;strokeWidth=1;shadow=0;" parent="WIyWlLk6GJQsqaUBKTNV-1" vertex="1">
          <mxGeometry x="50" y="230" width="120" height="40" as="geometry" />
        </mxCell>
        <mxCell id="WIyWlLk6GJQsqaUBKTNV-5" value="No" style="edgeStyle=orthogonalEdgeStyle;rounded=0;html=1;jettySize=auto;orthogonalLoop=1;fontSize=11;endArrow=block;endFill=0;endSize=8;strokeWidth=1;shadow=0;labelBackgroundColor=none;entryX=0.5;entryY=0.091;entryDx=0;entryDy=0;entryPerimeter=0;" parent="WIyWlLk6GJQsqaUBKTNV-1" source="WIyWlLk6GJQsqaUBKTNV-6" target="_553Wa28G-eBOWuDmr3F-0" edge="1">
          <mxGeometry x="-0.2386" y="12" relative="1" as="geometry">
            <mxPoint as="offset" />
            <mxPoint x="300" y="370" as="targetPoint" />
          </mxGeometry>
        </mxCell>
        <mxCell id="_553Wa28G-eBOWuDmr3F-19" value="" style="edgeStyle=orthogonalEdgeStyle;rounded=0;orthogonalLoop=1;jettySize=auto;html=1;" edge="1" parent="WIyWlLk6GJQsqaUBKTNV-1" source="WIyWlLk6GJQsqaUBKTNV-6" target="_553Wa28G-eBOWuDmr3F-18">
          <mxGeometry relative="1" as="geometry" />
        </mxCell>
        <mxCell id="WIyWlLk6GJQsqaUBKTNV-6" value="Is image?" style="rhombus;whiteSpace=wrap;html=1;shadow=0;fontFamily=Helvetica;fontSize=12;align=center;strokeWidth=1;spacing=6;spacingTop=-4;" parent="WIyWlLk6GJQsqaUBKTNV-1" vertex="1">
          <mxGeometry x="254" y="210" width="100" height="80" as="geometry" />
        </mxCell>
        <mxCell id="_553Wa28G-eBOWuDmr3F-9" style="edgeStyle=orthogonalEdgeStyle;rounded=0;orthogonalLoop=1;jettySize=auto;html=1;" edge="1" parent="WIyWlLk6GJQsqaUBKTNV-1" source="_553Wa28G-eBOWuDmr3F-0" target="_553Wa28G-eBOWuDmr3F-5">
          <mxGeometry relative="1" as="geometry">
            <mxPoint x="304" y="450" as="targetPoint" />
          </mxGeometry>
        </mxCell>
        <mxCell id="_553Wa28G-eBOWuDmr3F-10" value="No" style="edgeLabel;html=1;align=center;verticalAlign=middle;resizable=0;points=[];" vertex="1" connectable="0" parent="_553Wa28G-eBOWuDmr3F-9">
          <mxGeometry x="-0.0862" y="-1" relative="1" as="geometry">
            <mxPoint x="13" y="-1" as="offset" />
          </mxGeometry>
        </mxCell>
        <mxCell id="_553Wa28G-eBOWuDmr3F-25" value="" style="edgeStyle=orthogonalEdgeStyle;rounded=0;orthogonalLoop=1;jettySize=auto;html=1;" edge="1" parent="WIyWlLk6GJQsqaUBKTNV-1" source="_553Wa28G-eBOWuDmr3F-0" target="_553Wa28G-eBOWuDmr3F-24">
          <mxGeometry relative="1" as="geometry" />
        </mxCell>
        <mxCell id="_553Wa28G-eBOWuDmr3F-28" style="edgeStyle=orthogonalEdgeStyle;rounded=0;orthogonalLoop=1;jettySize=auto;html=1;entryX=0;entryY=0.5;entryDx=0;entryDy=0;" edge="1" parent="WIyWlLk6GJQsqaUBKTNV-1" source="_553Wa28G-eBOWuDmr3F-0" target="_553Wa28G-eBOWuDmr3F-18">
          <mxGeometry relative="1" as="geometry" />
        </mxCell>
        <mxCell id="_553Wa28G-eBOWuDmr3F-0" value="Is Document?" style="rhombus;whiteSpace=wrap;html=1;shadow=0;fontFamily=Helvetica;fontSize=12;align=center;strokeWidth=1;spacing=6;spacingTop=-4;" vertex="1" parent="WIyWlLk6GJQsqaUBKTNV-1">
          <mxGeometry x="254" y="330" width="100" height="80" as="geometry" />
        </mxCell>
        <mxCell id="_553Wa28G-eBOWuDmr3F-5" value="Give instructions" style="rounded=1;whiteSpace=wrap;html=1;shadow=0;strokeWidth=1;spacing=6;spacingTop=-4;" vertex="1" parent="WIyWlLk6GJQsqaUBKTNV-1">
          <mxGeometry x="244" y="460" width="120" height="60" as="geometry" />
        </mxCell>
        <mxCell id="_553Wa28G-eBOWuDmr3F-18" value="JPG?" style="rhombus;whiteSpace=wrap;html=1;shadow=0;fontFamily=Helvetica;fontSize=12;align=center;strokeWidth=1;spacing=6;spacingTop=-4;" vertex="1" parent="WIyWlLk6GJQsqaUBKTNV-1">
          <mxGeometry x="411.5" y="270" width="60" height="50" as="geometry" />
        </mxCell>
        <mxCell id="_553Wa28G-eBOWuDmr3F-26" value="" style="edgeStyle=orthogonalEdgeStyle;rounded=0;orthogonalLoop=1;jettySize=auto;html=1;" edge="1" parent="WIyWlLk6GJQsqaUBKTNV-1" source="_553Wa28G-eBOWuDmr3F-0" target="_553Wa28G-eBOWuDmr3F-24">
          <mxGeometry relative="1" as="geometry">
            <mxPoint x="354" y="370" as="sourcePoint" />
            <mxPoint x="440" y="300" as="targetPoint" />
          </mxGeometry>
        </mxCell>
        <mxCell id="_553Wa28G-eBOWuDmr3F-24" value="PFD?" style="rhombus;whiteSpace=wrap;html=1;shadow=0;fontFamily=Helvetica;fontSize=12;align=center;strokeWidth=1;spacing=6;spacingTop=-4;" vertex="1" parent="WIyWlLk6GJQsqaUBKTNV-1">
          <mxGeometry x="410" y="345" width="63" height="50" as="geometry" />
        </mxCell>
        <mxCell id="_553Wa28G-eBOWuDmr3F-30" value="Pool" style="swimlane;childLayout=stackLayout;resizeParent=1;resizeParentMax=0;startSize=20;horizontal=0;horizontalStack=1;" vertex="1" parent="WIyWlLk6GJQsqaUBKTNV-1">
          <mxGeometry x="20" y="-600" width="740" height="730" as="geometry" />
        </mxCell>
        <mxCell id="_553Wa28G-eBOWuDmr3F-31" value="User" style="swimlane;startSize=20;" vertex="1" parent="_553Wa28G-eBOWuDmr3F-30">
          <mxGeometry x="20" width="240" height="730" as="geometry" />
        </mxCell>
        <mxCell id="_553Wa28G-eBOWuDmr3F-34" value="UploadDocument" style="rounded=1;whiteSpace=wrap;html=1;" vertex="1" parent="_553Wa28G-eBOWuDmr3F-31">
          <mxGeometry x="60" y="64" width="120" height="36" as="geometry" />
        </mxCell>
        <mxCell id="_553Wa28G-eBOWuDmr3F-48" value="Input Payers" style="rounded=1;whiteSpace=wrap;html=1;" vertex="1" parent="_553Wa28G-eBOWuDmr3F-31">
          <mxGeometry x="60" y="144" width="120" height="36" as="geometry" />
        </mxCell>
        <mxCell id="_553Wa28G-eBOWuDmr3F-63" value="Input correct payer" style="rounded=1;whiteSpace=wrap;html=1;" vertex="1" parent="_553Wa28G-eBOWuDmr3F-31">
          <mxGeometry x="60" y="240" width="120" height="36" as="geometry" />
        </mxCell>
        <mxCell id="_553Wa28G-eBOWuDmr3F-32" value="BotStateMachine" style="swimlane;startSize=20;" vertex="1" parent="_553Wa28G-eBOWuDmr3F-30">
          <mxGeometry x="260" width="240" height="730" as="geometry" />
        </mxCell>
        <mxCell id="_553Wa28G-eBOWuDmr3F-49" value="HandlePayers" style="rounded=1;whiteSpace=wrap;html=1;" vertex="1" parent="_553Wa28G-eBOWuDmr3F-32">
          <mxGeometry x="60" y="144" width="120" height="36" as="geometry" />
        </mxCell>
        <mxCell id="_553Wa28G-eBOWuDmr3F-39" value="HandleReceipt" style="rounded=1;whiteSpace=wrap;html=1;" vertex="1" parent="_553Wa28G-eBOWuDmr3F-32">
          <mxGeometry x="60" y="64" width="120" height="36" as="geometry" />
        </mxCell>
        <mxCell id="_553Wa28G-eBOWuDmr3F-33" value="UpdateService" style="swimlane;startSize=20;" vertex="1" parent="_553Wa28G-eBOWuDmr3F-30">
          <mxGeometry x="500" width="240" height="730" as="geometry" />
        </mxCell>
        <mxCell id="_553Wa28G-eBOWuDmr3F-41" value="Parse Recipe Products" style="rounded=1;whiteSpace=wrap;html=1;" vertex="1" parent="_553Wa28G-eBOWuDmr3F-33">
          <mxGeometry x="60" y="64" width="120" height="36" as="geometry" />
        </mxCell>
        <mxCell id="_553Wa28G-eBOWuDmr3F-59" value="Create payer buttons" style="rounded=1;whiteSpace=wrap;html=1;" vertex="1" parent="_553Wa28G-eBOWuDmr3F-33">
          <mxGeometry x="60" y="144" width="120" height="36" as="geometry" />
        </mxCell>
        <mxCell id="_553Wa28G-eBOWuDmr3F-66" value="Create payer buttons" style="rounded=1;whiteSpace=wrap;html=1;" vertex="1" parent="_553Wa28G-eBOWuDmr3F-33">
          <mxGeometry x="60" y="200" width="120" height="36" as="geometry" />
        </mxCell>
        <mxCell id="_553Wa28G-eBOWuDmr3F-52" style="edgeStyle=orthogonalEdgeStyle;rounded=0;orthogonalLoop=1;jettySize=auto;html=1;exitX=0.5;exitY=1;exitDx=0;exitDy=0;entryX=0.5;entryY=0;entryDx=0;entryDy=0;" edge="1" parent="_553Wa28G-eBOWuDmr3F-30" source="_553Wa28G-eBOWuDmr3F-41" target="_553Wa28G-eBOWuDmr3F-48">
          <mxGeometry relative="1" as="geometry">
            <mxPoint x="655" y="174" as="targetPoint" />
          </mxGeometry>
        </mxCell>
        <mxCell id="_553Wa28G-eBOWuDmr3F-55" value="Ask payers" style="edgeLabel;html=1;align=center;verticalAlign=middle;resizable=0;points=[];" vertex="1" connectable="0" parent="_553Wa28G-eBOWuDmr3F-52">
          <mxGeometry x="0.1006" y="3" relative="1" as="geometry">
            <mxPoint x="26" y="-3" as="offset" />
          </mxGeometry>
        </mxCell>
        <mxCell id="_553Wa28G-eBOWuDmr3F-57" style="edgeStyle=orthogonalEdgeStyle;rounded=0;orthogonalLoop=1;jettySize=auto;html=1;entryX=0;entryY=0.5;entryDx=0;entryDy=0;" edge="1" parent="_553Wa28G-eBOWuDmr3F-30" source="_553Wa28G-eBOWuDmr3F-48" target="_553Wa28G-eBOWuDmr3F-49">
          <mxGeometry relative="1" as="geometry">
            <Array as="points">
              <mxPoint x="290" y="162" />
              <mxPoint x="290" y="162" />
            </Array>
          </mxGeometry>
        </mxCell>
        <mxCell id="_553Wa28G-eBOWuDmr3F-58" style="edgeStyle=orthogonalEdgeStyle;rounded=0;orthogonalLoop=1;jettySize=auto;html=1;entryX=0;entryY=0.5;entryDx=0;entryDy=0;" edge="1" parent="_553Wa28G-eBOWuDmr3F-30" source="_553Wa28G-eBOWuDmr3F-34" target="_553Wa28G-eBOWuDmr3F-39">
          <mxGeometry relative="1" as="geometry" />
        </mxCell>
        <mxCell id="_553Wa28G-eBOWuDmr3F-44" style="edgeStyle=orthogonalEdgeStyle;rounded=0;orthogonalLoop=1;jettySize=auto;html=1;" edge="1" parent="_553Wa28G-eBOWuDmr3F-30" source="_553Wa28G-eBOWuDmr3F-39" target="_553Wa28G-eBOWuDmr3F-41">
          <mxGeometry relative="1" as="geometry" />
        </mxCell>
        <mxCell id="_553Wa28G-eBOWuDmr3F-60" style="edgeStyle=orthogonalEdgeStyle;rounded=0;orthogonalLoop=1;jettySize=auto;html=1;" edge="1" parent="_553Wa28G-eBOWuDmr3F-30" source="_553Wa28G-eBOWuDmr3F-49" target="_553Wa28G-eBOWuDmr3F-59">
          <mxGeometry relative="1" as="geometry" />
        </mxCell>
        <mxCell id="_553Wa28G-eBOWuDmr3F-64" style="edgeStyle=orthogonalEdgeStyle;rounded=0;orthogonalLoop=1;jettySize=auto;html=1;exitX=0;exitY=0.5;exitDx=0;exitDy=0;" edge="1" parent="_553Wa28G-eBOWuDmr3F-30" source="_553Wa28G-eBOWuDmr3F-66" target="_553Wa28G-eBOWuDmr3F-63">
          <mxGeometry relative="1" as="geometry">
            <Array as="points">
              <mxPoint x="140" y="218" />
            </Array>
          </mxGeometry>
        </mxCell>
        <mxCell id="_553Wa28G-eBOWuDmr3F-65" value="Iterate asking product rows" style="edgeLabel;html=1;align=center;verticalAlign=middle;resizable=0;points=[];" vertex="1" connectable="0" parent="_553Wa28G-eBOWuDmr3F-64">
          <mxGeometry x="-0.0096" y="-3" relative="1" as="geometry">
            <mxPoint x="39" y="3" as="offset" />
          </mxGeometry>
        </mxCell>
      </root>
    </mxGraphModel>
  </diagram>
</mxfile>
